<?xml version="1.0" encoding="UTF-8"?>
<svg id="Layer_1" data-name="Layer 1" xmlns="http://www.w3.org/2000/svg" viewBox="0 0 110 132">
  <defs>
    <style>
      .cls-1 {
        stroke-width: 3px;
      }

      .cls-1, .cls-2 {
        fill: none;
        stroke: #fff;
        stroke-miterlimit: 10;
      }

      .cls-2 {
        stroke-width: 2px;
      }

      .cls-3 {
        fill: #fff;
      }

      .cls-3, .cls-4, .cls-5 {
        stroke-width: 0px;
      }

      .cls-4 {
        fill: #010101;
        opacity: .1;
      }

      .cls-5 {
        fill: #5653a3;
      }
    </style>
  </defs>
  <rect class="cls-5" width="110" height="132"/>
  <g id="Hoofd">
    <g>
      <path class="cls-3" d="m24,44c-2.76,0-5-2.24-5-5s2.24-5,5-5"/>
      <path class="cls-3" d="m73.04,22H30.96c-2.74,0-4.96,2.22-4.96,4.96v22.07c0,2.74,2.22,4.96,4.96,4.96h42.07c2.74,0,4.96-2.22,4.96-4.96v-22.07c0-2.74-2.22-4.96-4.96-4.96Zm-28.04,26h-2v-2h2v2Zm4,0h-2v-2h2v2Zm4,0h-2v-2h2v2Zm4,0h-2v-2h2v2Zm4,0h-2v-2h2v2Zm5-8h-28c-3.31,0-6-2.69-6-6s2.69-6,6-6h28c3.31,0,6,2.69,6,6s-2.69,6-6,6Z"/>
      <path class="cls-3" d="m80,34c2.76,0,5,2.24,5,5s-2.24,5-5,5"/>
      <rect class="cls-3" x="38" y="12" width="4" height="8"/>
      <circle class="cls-3" cx="40" cy="9" r="5"/>
      <rect class="cls-3" x="62" y="12" width="4" height="8"/>
      <circle class="cls-3" cx="64" cy="9" r="5"/>
    </g>
    <rect class="cls-3" x="52.29" y="24.62" width="2.59" height="17.86" transform="translate(23.95 -22.3) rotate(30)"/>
    <rect class="cls-3" x="58.4" y="24.99" width="5.21" height="18.98" transform="translate(25.41 -25.88) rotate(30)"/>
  </g>
  <g id="Torso">
    <rect class="cls-3" x="48" y="58" width="8" height="4"/>
    <path class="cls-3" d="m78,81.95c-.03-12.13-11.66-21.95-26-21.95-14.34,0-25.97,9.82-26,21.95,0,0,0,.01,0,.02v12.07c0,2.19,1.77,3.96,3.96,3.96h44.07c2.19,0,3.96-1.77,3.96-3.96v-12.07s0-.01,0-.02Zm-18.24,4.09h-3.85c-.21,0-.31-.11-.31-.32,0-.61.03-1.54.08-2.76.05-1.23.08-2.15.08-2.76,0-.18-.03-.27-.1-.28-.08.04-.56.98-1.46,2.82-.52,1.08-1.04,2.16-1.57,3.24-.07.14-.16.22-.27.25-.04,0-.18,0-.43,0-.38,0-.6-.06-.67-.18-.39-.67-.91-1.64-1.54-2.92-.68-1.35-1.19-2.33-1.53-2.93-.01-.03-.05-.06-.1-.1-.05.05-.08.14-.08.26,0,.6.02,1.49.05,2.68.04,1.19.05,2.08.05,2.68,0,.21-.1.32-.3.32h-3.63c-.15,0-.23-.02-.27-.06-.03-.04-.05-.11-.05-.21,0-.66.04-1.66.11-2.99s.11-2.32.11-2.99c0-.71-.04-2.03-.11-3.97,0-.5-.04-1.25-.1-2.25v-.16c-.02-.12.13-.18.45-.18.4,0,1-.01,1.79-.03.8-.02,1.4-.03,1.79-.03.08,0,.19.13.34.38l3.17,5.85c.22.4.41.59.57.59.08,0,.25-.23.51-.68.73-1.28,1.81-3.2,3.25-5.77.12-.24.26-.36.4-.36.21,0,.53,0,.95.03.42.02.75.03.96.03.18,0,.46-.02.83-.05.37-.03.65-.05.83-.05.22,0,.33.07.33.22,0,.72-.03,1.79-.09,3.21s-.09,2.5-.09,3.21c0,.66.03,1.66.1,2.98s.1,2.32.1,2.97c0,.19-.1.28-.31.28Z"/>
  </g>
  <g id="Flame">
    <rect class="cls-3" x="38" y="100" width="28" height="2" rx="1" ry="1"/>
    <path class="cls-3" d="m47.66,110l4.28,9.33,4.09-9.33,5.95,2.61c-.23-4.79-4.6-8.61-9.98-8.61s-9.73,3.81-9.98,8.59l5.63-2.59Z"/>
  </g>
  <g id="RightArm">
    <path class="cls-1" d="m79.87,75.93c1.73.29,3.49-.26,5.12-.93,7.12-2.93,13.21-8.3,17.01-15"/>
    <path class="cls-2" d="m99.03,53.71c-.54,1.16-.77,2.46-.66,3.74.04.42.11.84.3,1.21.29.57.81.98,1.34,1.34.72.49,1.48.94,2.31,1.18s1.76.25,2.55-.11c1.7-.78,2.22-2.88,3.34-4.38"/>
  </g>
  <g id="LeftArm">
    <path class="cls-1" d="m27.12,68.58c-1.76.06-3.37.96-4.83,1.94-6.39,4.3-11.28,10.78-13.66,18.1"/>
    <path class="cls-2" d="m11.18,95.64c.54-1.16.77-2.46.66-3.74-.04-.42-.11-.84-.3-1.21-.29-.57-.81-.98-1.34-1.34-.72-.49-1.48-.94-2.31-1.18s-1.76-.25-2.55.11c-1.7.78-2.22,2.88-3.34,4.38"/>
  </g>
  <ellipse id="Shadow" class="cls-4" cx="52" cy="126" rx="18" ry="2"/>
</svg>